Patient4_TMGait_0pt6_01_left_10_GRF.mot
version=1
nRows=32
nColumns=19
inDegrees=no
endheader
time	F1x	F1y	F1z	M1x	M1y	M1z	F2x	F2y	F2z	M2x	M2y	M2z	EC1x	EC1y	EC1z	EC2x	EC2y	EC2z
12.14	3.9506	13.8888	4.1727	-4.1617	-5.1412	16.7214	-9.096	801.2976	-58.9169	332.9245	54.8268	715.385	-0.0592	0.0182	-0.0073	-0.0462	0.0165	0.9585
12.1521	2.3405	10.1632	2.9262	-3.1241	-3.6446	12.2334	-9.5888	786.0153	-58.0313	326.8452	54.2517	697.3904	-0.0592	0.0182	-0.0073	-0.0462	0.0165	0.9585
12.1641	1.0078	7.0377	1.865	-2.2467	-2.3944	8.3752	-9.4086	768.8343	-57.139	319.8703	53.2655	677.4996	-0.0592	0.0182	-0.0073	-0.0462	0.0165	0.9585
12.1762	0.032133	4.6786	1.0533	-1.584	-1.4478	5.3913	-8.5984	751.0803	-56.2923	312.5294	51.927	657.1492	-0.0592	0.0182	-0.0073	-0.0462	0.0165	0.9585
12.1883	-0.63685	3.0749	0.48646	-1.137	-0.79696	3.3361	-7.3035	734.2891	-55.5328	305.4664	50.3548	637.8354	-0.0592	0.0182	-0.0073	-0.0462	0.0165	0.9585
12.2004	-1.031	2.1246	0.12991	-0.87634	-0.39084	2.0892	-5.706	719.9689	-54.8588	299.3293	48.6562	620.9139	-0.0592	0.0182	-0.0073	-0.0462	0.0165	0.9585
12.2124	-1.2709	1.6749	-0.066192	-0.75481	-0.18144	1.4855	-3.9679	709.3016	-54.2774	294.6401	46.9366	607.3746	-0.0592	0.0182	-0.0073	-0.0462	0.0165	0.9585
12.2245	-1.4007	1.5403	-0.15729	-0.71714	-0.10015	1.2763	-2.2123	703.0125	-53.7834	291.7301	45.2698	597.7795	-0.0592	0.0182	-0.0073	-0.0462	0.0165	0.9585
12.2366	-1.5081	1.565	-0.18119	-0.71185	-0.11173	1.2956	-0.52728	701.2959	-53.3843	290.7058	43.7159	592.2193	-0.0592	0.0182	-0.0073	-0.0462	0.0165	0.9585
12.2486	-1.6043	1.5624	-0.17601	-0.68084	-0.17166	1.307	1.0602	703.8316	-53.0805	291.4512	42.3004	590.3388	-0.0592	0.0182	-0.0073	-0.0462	0.0165	0.9585
12.2607	-1.7399	1.3982	-0.15309	-0.57677	-0.27259	1.1722	2.5545	709.855	-52.8772	293.6524	41.0379	591.4404	-0.0592	0.0182	-0.0073	-0.0462	0.0165	0.9585
12.2728	-1.8794	0.90724	-0.12408	-0.34687	-0.38704	0.68291	3.9803	718.2225	-52.7753	296.834	39.9219	594.5379	-0.0592	0.0182	-0.0073	-0.0462	0.0165	0.9585
12.2849	-2.0327	-0.03612	-0.090225	0.052046	-0.50399	-0.27822	5.3494	727.5805	-52.7711	300.4248	38.9375	598.5244	-0.0592	0.0182	-0.0073	-0.0462	0.0165	0.9585
12.2969	-2.1163	-1.5404	-0.056039	0.65435	-0.58647	-1.8281	6.6937	736.4965	-52.8638	303.8198	38.0696	602.2422	-0.0592	0.0182	-0.0073	-0.0462	0.0165	0.9585
12.309	-2.0572	-3.6128	-0.029126	1.4618	-0.59313	-3.9553	8.0306	743.661	-53.0206	306.4639	37.2796	604.6567	-0.0592	0.0182	-0.0073	-0.0462	0.0165	0.9585
12.3211	-1.71	-6.1196	-0.018613	2.4237	-0.46577	-6.5447	9.4	748.0134	-53.2282	307.9068	36.5427	604.922	-0.0592	0.0182	-0.0073	-0.0462	0.0165	0.9585
12.3331	-0.92558	-8.6979	-0.037165	3.4035	-0.13739	-9.2212	10.8032	748.8856	-53.4817	307.8594	35.8479	602.5336	-0.0592	0.0182	-0.0073	-0.0462	0.0165	0.9585
12.3452	0.49227	-10.6976	-0.09662	4.1499	0.47001	-11.332	12.2632	746.0903	-53.8085	306.2349	35.2051	597.3376	-0.0592	0.0182	-0.0073	-0.0462	0.0165	0.9585
12.3573	2.6945	-11.0617	-0.1973	4.2551	1.4149	-11.8112	13.7966	739.978	-54.2398	303.1667	34.6197	589.6077	-0.0592	0.0182	-0.0073	-0.0462	0.0165	0.9585
12.3694	5.7888	-8.2864	-0.33507	3.1385	2.7324	-9.1366	15.4734	731.255	-54.8004	298.9459	34.0751	579.861	-0.0592	0.0182	-0.0073	-0.0462	0.0165	0.9585
12.3814	9.7378	-0.38977	-0.48576	0.040696	4.3843	-1.2902	17.3466	720.8151	-55.4851	293.9485	33.5378	568.7814	-0.0592	0.0182	-0.0073	-0.0462	0.0165	0.9585
12.3935	14.2521	14.952	-0.6245	-5.9257	6.2301	14.1013	19.4871	709.4382	-56.2427	288.5206	32.942	556.9593	-0.0592	0.0182	-0.0073	-0.0462	0.0165	0.9585
12.4056	18.6481	40.1134	-0.69547	-15.6569	7.9451	39.4683	21.8829	697.5633	-56.9844	282.8802	32.2273	544.7711	-0.0592	0.0182	-0.0073	-0.0462	0.0165	0.9585
12.4176	21.6701	76.9375	-0.62782	-29.8387	8.9696	76.7281	24.5209	685.0452	-57.5594	277.0205	31.3068	532.1448	-0.0592	0.0182	-0.0073	-0.0462	0.0165	0.9585
12.4297	21.4435	125.9183	-0.27452	-48.6403	8.4495	126.4533	27.3172	671.1158	-57.7698	270.6831	30.088	518.5759	-0.0592	0.0182	-0.0073	-0.0462	0.0165	0.9585
12.4418	16.3294	186.02	0.6052	-71.6327	5.5443	187.7035	30.1849	654.4078	-57.3772	263.3714	28.4533	503.0781	-0.0592	0.0182	-0.0073	-0.0462	0.0165	0.9585
12.4539	6.5506	255.088	2.2806	-97.9304	0.078318	258.3209	32.9511	633.2269	-56.1515	254.4372	26.3227	484.442	-0.0592	0.0182	-0.0073	-0.0462	0.0165	0.9585
12.4659	-6.3465	328.6497	5.1177	-125.7298	-7.7088	333.6602	35.3953	605.7632	-53.9357	243.166	23.6873	461.3658	-0.0592	0.0182	-0.0073	-0.0462	0.0165	0.9585
12.478	-20.3723	399.207	9.8984	-152.1162	-17.7873	405.7843	37.2231	570.3919	-50.6831	228.8974	20.6434	432.6914	-0.0592	0.0182	-0.0073	-0.0462	0.0165	0.9585
12.4901	-33.5433	461.0099	16.5305	-174.8798	-29.2795	468.548	38.1381	526.2202	-46.467	211.2388	17.3715	397.7891	-0.0592	0.0182	-0.0073	-0.0462	0.0165	0.9585
12.5021	-44.7142	512.4045	24.2275	-193.4191	-40.9305	520.0933	37.8572	473.5309	-41.5328	190.2428	14.1454	356.9026	-0.0592	0.0182	-0.0073	-0.0462	0.0165	0.9585
12.5142	-53.301	554.6497	32.029	-208.2714	-51.5558	561.6488	36.2191	413.7857	-36.2852	166.4257	11.2951	311.1267	-0.0592	0.0182	-0.0073	-0.0462	0.0165	0.9585
